<svg width="843" height="359" viewBox="0 0 843 359" fill="none" xmlns="http://www.w3.org/2000/svg">
<circle cx="7.5" cy="7.5" r="7.5" fill="#131313"/>
<circle cx="7.5" cy="50.5" r="7.5" fill="#131313"/>
<circle cx="7.5" cy="93.5" r="7.5" fill="#131313"/>
<circle cx="7.5" cy="136.5" r="7.5" fill="#131313"/>
<circle cx="7.5" cy="179.5" r="7.5" fill="#131313"/>
<circle cx="7.5" cy="222.5" r="7.5" fill="#131313"/>
<circle cx="7.5" cy="265.5" r="7.5" fill="#131313"/>
<circle cx="7.5" cy="308.5" r="7.5" fill="#131313"/>
<circle cx="7.5" cy="351.5" r="7.5" fill="#131313"/>
<circle cx="53.5" cy="7.5" r="7.5" fill="#131313"/>
<circle cx="53.5" cy="50.5" r="7.5" fill="#131313"/>
<circle cx="53.5" cy="93.5" r="7.5" fill="#131313"/>
<circle cx="53.5" cy="136.5" r="7.5" fill="#131313"/>
<circle cx="53.5" cy="179.5" r="7.5" fill="#131313"/>
<circle cx="53.5" cy="222.5" r="7.5" fill="#131313"/>
<circle cx="53.5" cy="265.5" r="7.5" fill="#131313"/>
<circle cx="53.5" cy="308.5" r="7.5" fill="#131313"/>
<circle cx="53.5" cy="351.5" r="7.5" fill="#131313"/>
<circle cx="99.5" cy="7.5" r="7.5" fill="#131313"/>
<circle cx="99.5" cy="50.5" r="7.5" fill="#131313"/>
<circle cx="99.5" cy="93.5" r="7.5" fill="#131313"/>
<circle cx="99.5" cy="136.5" r="7.5" fill="#131313"/>
<circle cx="99.5" cy="179.5" r="7.5" fill="#131313"/>
<circle cx="99.5" cy="222.5" r="7.5" fill="#131313"/>
<circle cx="99.5" cy="265.5" r="7.5" fill="#131313"/>
<circle cx="99.5" cy="308.5" r="7.5" fill="#131313"/>
<circle cx="99.5" cy="351.5" r="7.5" fill="#131313"/>
<circle cx="145.5" cy="7.5" r="7.5" fill="#131313"/>
<circle cx="145.5" cy="50.5" r="7.5" fill="#131313"/>
<circle cx="145.5" cy="93.5" r="7.5" fill="#131313"/>
<circle cx="145.5" cy="136.5" r="7.5" fill="#131313"/>
<circle cx="145.5" cy="179.5" r="7.5" fill="#131313"/>
<circle cx="145.5" cy="222.5" r="7.5" fill="#131313"/>
<circle cx="145.5" cy="265.5" r="7.5" fill="#131313"/>
<circle cx="145.5" cy="308.5" r="7.5" fill="#131313"/>
<circle cx="145.5" cy="351.5" r="7.5" fill="#131313"/>
<circle cx="191.5" cy="7.5" r="7.5" fill="#131313"/>
<circle cx="191.5" cy="50.5" r="7.5" fill="#131313"/>
<circle cx="191.5" cy="93.5" r="7.5" fill="#131313"/>
<circle cx="191.5" cy="136.5" r="7.5" fill="#131313"/>
<circle cx="191.5" cy="179.5" r="7.5" fill="#131313"/>
<circle cx="191.5" cy="222.5" r="7.5" fill="#131313"/>
<circle cx="191.5" cy="265.5" r="7.5" fill="#131313"/>
<circle cx="191.5" cy="308.5" r="7.5" fill="#131313"/>
<circle cx="191.5" cy="351.5" r="7.5" fill="#131313"/>
<circle cx="237.5" cy="7.5" r="7.5" fill="#131313"/>
<circle cx="237.5" cy="50.5" r="7.5" fill="#131313"/>
<circle cx="237.5" cy="93.5" r="7.5" fill="#131313"/>
<circle cx="237.5" cy="136.5" r="7.5" fill="#131313"/>
<circle cx="237.5" cy="179.5" r="7.5" fill="#131313"/>
<circle cx="237.5" cy="222.5" r="7.5" fill="#131313"/>
<circle cx="237.5" cy="265.5" r="7.5" fill="#131313"/>
<circle cx="237.5" cy="308.5" r="7.5" fill="#131313"/>
<circle cx="237.5" cy="351.5" r="7.5" fill="#131313"/>
<circle cx="283.5" cy="7.5" r="7.5" fill="#131313"/>
<circle cx="283.5" cy="50.5" r="7.5" fill="#131313"/>
<circle cx="283.5" cy="93.5" r="7.5" fill="#131313"/>
<circle cx="283.5" cy="136.5" r="7.5" fill="#131313"/>
<circle cx="283.5" cy="179.5" r="7.5" fill="#131313"/>
<circle cx="283.5" cy="222.5" r="7.5" fill="#131313"/>
<circle cx="283.5" cy="265.5" r="7.5" fill="#131313"/>
<circle cx="283.5" cy="308.5" r="7.5" fill="#131313"/>
<circle cx="283.5" cy="351.5" r="7.5" fill="#131313"/>
<circle cx="329.5" cy="7.5" r="7.5" fill="#131313"/>
<circle cx="329.5" cy="50.5" r="7.5" fill="#131313"/>
<circle cx="329.5" cy="93.5" r="7.5" fill="#131313"/>
<circle cx="329.5" cy="136.5" r="7.5" fill="#131313"/>
<circle cx="329.5" cy="179.5" r="7.5" fill="#131313"/>
<circle cx="329.5" cy="222.5" r="7.5" fill="#131313"/>
<circle cx="329.5" cy="265.5" r="7.5" fill="#131313"/>
<circle cx="329.5" cy="308.5" r="7.5" fill="#131313"/>
<circle cx="329.5" cy="351.5" r="7.5" fill="#131313"/>
<circle cx="375.5" cy="7.5" r="7.5" fill="#131313"/>
<circle cx="375.5" cy="50.5" r="7.5" fill="#131313"/>
<circle cx="375.5" cy="93.5" r="7.5" fill="#131313"/>
<circle cx="375.5" cy="136.5" r="7.5" fill="#131313"/>
<circle cx="375.5" cy="179.5" r="7.5" fill="#131313"/>
<circle cx="375.5" cy="222.5" r="7.5" fill="#131313"/>
<circle cx="375.5" cy="265.5" r="7.5" fill="#131313"/>
<circle cx="375.5" cy="308.5" r="7.5" fill="#131313"/>
<circle cx="375.5" cy="351.5" r="7.5" fill="#131313"/>
<circle cx="421.5" cy="7.5" r="7.5" fill="#131313"/>
<circle cx="421.5" cy="50.5" r="7.5" fill="#131313"/>
<circle cx="421.5" cy="93.5" r="7.5" fill="#131313"/>
<circle cx="421.5" cy="136.5" r="7.5" fill="#131313"/>
<circle cx="421.5" cy="179.5" r="7.5" fill="#131313"/>
<circle cx="421.5" cy="222.5" r="7.5" fill="#131313"/>
<circle cx="421.5" cy="265.5" r="7.5" fill="#131313"/>
<circle cx="421.5" cy="308.5" r="7.5" fill="#131313"/>
<circle cx="421.5" cy="351.5" r="7.5" fill="#131313"/>
<circle cx="467.5" cy="7.5" r="7.5" fill="#131313"/>
<circle cx="467.5" cy="50.5" r="7.5" fill="#131313"/>
<circle cx="467.5" cy="93.5" r="7.5" fill="#131313"/>
<circle cx="467.5" cy="136.5" r="7.5" fill="#131313"/>
<circle cx="467.5" cy="179.5" r="7.5" fill="#131313"/>
<circle cx="467.5" cy="222.5" r="7.5" fill="#131313"/>
<circle cx="467.5" cy="265.5" r="7.5" fill="#131313"/>
<circle cx="467.5" cy="308.5" r="7.5" fill="#131313"/>
<circle cx="467.5" cy="351.5" r="7.5" fill="#131313"/>
<circle cx="513.5" cy="7.5" r="7.5" fill="#131313"/>
<circle cx="513.5" cy="50.5" r="7.5" fill="#131313"/>
<circle cx="513.5" cy="93.5" r="7.5" fill="#131313"/>
<circle cx="513.5" cy="136.5" r="7.5" fill="#131313"/>
<circle cx="513.5" cy="179.5" r="7.5" fill="#131313"/>
<circle cx="513.5" cy="222.5" r="7.5" fill="#131313"/>
<circle cx="513.5" cy="265.5" r="7.5" fill="#131313"/>
<circle cx="513.5" cy="308.5" r="7.5" fill="#131313"/>
<circle cx="513.5" cy="351.5" r="7.5" fill="#131313"/>
<circle cx="559.5" cy="7.5" r="7.5" fill="#131313"/>
<circle cx="559.5" cy="50.5" r="7.5" fill="#131313"/>
<circle cx="559.5" cy="93.5" r="7.5" fill="#131313"/>
<circle cx="559.5" cy="136.5" r="7.5" fill="#131313"/>
<circle cx="559.5" cy="179.5" r="7.5" fill="#131313"/>
<circle cx="559.5" cy="222.5" r="7.5" fill="#131313"/>
<circle cx="559.5" cy="265.5" r="7.5" fill="#131313"/>
<circle cx="559.5" cy="308.5" r="7.5" fill="#131313"/>
<circle cx="559.5" cy="351.5" r="7.5" fill="#131313"/>
<circle cx="605.5" cy="7.5" r="7.5" fill="#131313"/>
<circle cx="605.5" cy="50.5" r="7.5" fill="#131313"/>
<circle cx="605.5" cy="93.5" r="7.5" fill="#131313"/>
<circle cx="605.5" cy="136.5" r="7.5" fill="#131313"/>
<circle cx="605.5" cy="179.5" r="7.5" fill="#131313"/>
<circle cx="605.5" cy="222.5" r="7.5" fill="#131313"/>
<circle cx="605.5" cy="265.5" r="7.5" fill="#131313"/>
<circle cx="605.5" cy="308.5" r="7.5" fill="#131313"/>
<circle cx="605.5" cy="351.5" r="7.5" fill="#131313"/>
<circle cx="651.5" cy="7.5" r="7.5" fill="#131313"/>
<circle cx="651.5" cy="50.5" r="7.5" fill="#131313"/>
<circle cx="651.5" cy="93.5" r="7.5" fill="#131313"/>
<circle cx="651.5" cy="136.5" r="7.5" fill="#131313"/>
<circle cx="651.5" cy="179.5" r="7.5" fill="#131313"/>
<circle cx="651.5" cy="222.5" r="7.5" fill="#131313"/>
<circle cx="651.5" cy="265.5" r="7.5" fill="#131313"/>
<circle cx="651.5" cy="308.5" r="7.5" fill="#131313"/>
<circle cx="651.5" cy="351.5" r="7.5" fill="#131313"/>
<circle cx="697.5" cy="7.5" r="7.5" fill="#131313"/>
<circle cx="697.5" cy="50.5" r="7.5" fill="#131313"/>
<circle cx="697.5" cy="93.5" r="7.5" fill="#131313"/>
<circle cx="697.5" cy="136.5" r="7.5" fill="#131313"/>
<circle cx="697.5" cy="179.5" r="7.5" fill="#131313"/>
<circle cx="697.5" cy="222.5" r="7.5" fill="#131313"/>
<circle cx="697.5" cy="265.5" r="7.5" fill="#131313"/>
<circle cx="697.5" cy="308.5" r="7.5" fill="#131313"/>
<circle cx="697.5" cy="351.5" r="7.5" fill="#131313"/>
<circle cx="513.5" cy="7.5" r="7.5" fill="#131313"/>
<circle cx="513.5" cy="50.5" r="7.5" fill="#131313"/>
<circle cx="513.5" cy="93.5" r="7.5" fill="#131313"/>
<circle cx="513.5" cy="136.5" r="7.5" fill="#131313"/>
<circle cx="513.5" cy="179.5" r="7.5" fill="#131313"/>
<circle cx="513.5" cy="222.5" r="7.5" fill="#131313"/>
<circle cx="513.5" cy="265.5" r="7.5" fill="#131313"/>
<circle cx="513.5" cy="308.5" r="7.5" fill="#131313"/>
<circle cx="513.5" cy="351.5" r="7.5" fill="#131313"/>
<circle cx="559.5" cy="7.5" r="7.5" fill="#131313"/>
<circle cx="559.5" cy="50.5" r="7.5" fill="#131313"/>
<circle cx="559.5" cy="93.5" r="7.5" fill="#131313"/>
<circle cx="559.5" cy="136.5" r="7.5" fill="#131313"/>
<circle cx="559.5" cy="179.5" r="7.5" fill="#131313"/>
<circle cx="559.5" cy="222.5" r="7.5" fill="#131313"/>
<circle cx="559.5" cy="265.5" r="7.5" fill="#131313"/>
<circle cx="559.5" cy="308.5" r="7.5" fill="#131313"/>
<circle cx="559.5" cy="351.5" r="7.5" fill="#131313"/>
<circle cx="605.5" cy="7.5" r="7.5" fill="#131313"/>
<circle cx="605.5" cy="50.5" r="7.5" fill="#131313"/>
<circle cx="605.5" cy="93.5" r="7.5" fill="#131313"/>
<circle cx="605.5" cy="136.5" r="7.5" fill="#131313"/>
<circle cx="605.5" cy="179.5" r="7.5" fill="#131313"/>
<circle cx="605.5" cy="222.5" r="7.5" fill="#131313"/>
<circle cx="605.5" cy="265.5" r="7.5" fill="#131313"/>
<circle cx="605.5" cy="308.5" r="7.5" fill="#131313"/>
<circle cx="605.5" cy="351.5" r="7.5" fill="#131313"/>
<circle cx="651.5" cy="7.5" r="7.5" fill="#131313"/>
<circle cx="651.5" cy="50.5" r="7.5" fill="#131313"/>
<circle cx="651.5" cy="93.5" r="7.5" fill="#131313"/>
<circle cx="651.5" cy="136.5" r="7.5" fill="#131313"/>
<circle cx="651.5" cy="179.5" r="7.5" fill="#131313"/>
<circle cx="651.5" cy="222.5" r="7.5" fill="#131313"/>
<circle cx="651.5" cy="265.5" r="7.5" fill="#131313"/>
<circle cx="651.5" cy="308.5" r="7.5" fill="#131313"/>
<circle cx="651.5" cy="351.5" r="7.5" fill="#131313"/>
<circle cx="697.5" cy="7.5" r="7.5" fill="#131313"/>
<circle cx="697.5" cy="50.5" r="7.5" fill="#131313"/>
<circle cx="697.5" cy="93.5" r="7.5" fill="#131313"/>
<circle cx="697.5" cy="136.5" r="7.5" fill="#131313"/>
<circle cx="697.5" cy="179.5" r="7.5" fill="#131313"/>
<circle cx="697.5" cy="222.5" r="7.5" fill="#131313"/>
<circle cx="697.5" cy="265.5" r="7.5" fill="#131313"/>
<circle cx="697.5" cy="308.5" r="7.5" fill="#131313"/>
<circle cx="697.5" cy="351.5" r="7.5" fill="#131313"/>
<circle cx="743.5" cy="7.5" r="7.5" fill="#131313"/>
<circle cx="743.5" cy="50.5" r="7.5" fill="#131313"/>
<circle cx="743.5" cy="93.5" r="7.5" fill="#131313"/>
<circle cx="743.5" cy="136.5" r="7.5" fill="#131313"/>
<circle cx="743.5" cy="179.5" r="7.5" fill="#131313"/>
<circle cx="743.5" cy="222.5" r="7.5" fill="#131313"/>
<circle cx="743.5" cy="265.5" r="7.5" fill="#131313"/>
<circle cx="743.5" cy="308.5" r="7.5" fill="#131313"/>
<circle cx="743.5" cy="351.5" r="7.5" fill="#131313"/>
<circle cx="789.5" cy="7.5" r="7.5" fill="#131313"/>
<circle cx="789.5" cy="50.5" r="7.5" fill="#131313"/>
<circle cx="789.5" cy="93.5" r="7.5" fill="#131313"/>
<circle cx="789.5" cy="136.5" r="7.5" fill="#131313"/>
<circle cx="789.5" cy="179.5" r="7.5" fill="#131313"/>
<circle cx="789.5" cy="222.5" r="7.5" fill="#131313"/>
<circle cx="789.5" cy="265.5" r="7.5" fill="#131313"/>
<circle cx="789.5" cy="308.5" r="7.5" fill="#131313"/>
<circle cx="789.5" cy="351.5" r="7.5" fill="#131313"/>
<circle cx="835.5" cy="7.5" r="7.5" fill="#131313"/>
<circle cx="835.5" cy="50.5" r="7.5" fill="#131313"/>
<circle cx="835.5" cy="93.5" r="7.5" fill="#131313"/>
<circle cx="835.5" cy="136.5" r="7.5" fill="#131313"/>
<circle cx="835.5" cy="179.5" r="7.5" fill="#131313"/>
<circle cx="835.5" cy="222.5" r="7.5" fill="#131313"/>
<circle cx="835.5" cy="265.5" r="7.5" fill="#131313"/>
<circle cx="835.5" cy="308.5" r="7.5" fill="#131313"/>
<circle cx="835.5" cy="351.5" r="7.5" fill="#131313"/>
</svg>
